# xmcd CD database file
#
# Track frame offsets:
#	182
#	15507
#	28830
#	40577
#	50365
#	64777
#	77032
#	88860
#	101995
#	116812
#	126322
#	138595
#	150555
#	166302
#	179385
#	195135
#
# Disc length: 2816 seconds
#
# Revision: 0
# Processed by: cddbd v1.5.2PL0 Copyright (c) Steve Scherf et al.
# Submitted via: CDex 1.70beta2
#
DISCID=d20afe10
DTITLE=Benny Goodman - Les plus grands orchestres de jazz
DYEAR=1992
DGENRE=Jazz
TTITLE0=Saint-Louis blues
TTITLE1=Jam session
TTITLE2=Buggle callrag
TTITLE3=Alexander's ragtime band
TTITLE4=King Porter stomp
TTITLE5=No other one
TTITLE6=Jingle bells
TTITLE7=Star dust
TTITLE8=Stompin' at the savoy
TTITLE9=I know that you know
TTITLE10=Remember
TTITLE11=Sandman
TTITLE12=Good-bye
TTITLE13=Pick yourself up
TTITLE14=Riffin's at the ritz
TTITLE15=Christopher columbus
EXTD=YEAR: 1992
EXTT0=
EXTT1=
EXTT2=
EXTT3=
EXTT4=
EXTT5=
EXTT6=
EXTT7=
EXTT8=
EXTT9=
EXTT10=
EXTT11=
EXTT12=
EXTT13=
EXTT14=
EXTT15=
PLAYORDER=
